<svg xmlns="http://www.w3.org/2000/svg" viewBox="0 0 64 64" fill="none">
  <defs>
    <linearGradient id="bg" x1="0" y1="0" x2="1" y2="1">
      <stop offset="0%" stop-color="#64748b"/>
      <stop offset="100%" stop-color="#22d3ee"/>
    </linearGradient>
  </defs>
  <rect width="64" height="64" rx="16" fill="url(#bg)"/>
  <path d="M32 14c-11.05 0-20 8.95-20 20 0 8.6 9.42 21.58 16.97 29.49 1.75 1.84 4.59 1.84 6.34 0C42.58 55.58 52 42.6 52 34c0-11.05-8.95-20-20-20z" fill="white" opacity="0.15"/>
  <path d="M32 14c-11.05 0-20 8.95-20 20 0 8.6 9.42 21.58 16.97 29.49 1.75 1.84 4.59 1.84 6.34 0C42.58 55.58 52 42.6 52 34c0-11.05-8.95-20-20-20z" stroke="white" stroke-width="2.5" stroke-linejoin="round" opacity="0.9"/>
  <path d="M32 26v16" stroke="white" stroke-width="3" stroke-linecap="round" opacity="0.95"/>
  <path d="M24 34h16" stroke="white" stroke-width="3" stroke-linecap="round" opacity="0.95"/>
</svg>
